<svg width="25" height="26" fill="none" xmlns="http://www.w3.org/2000/svg"><path fill-rule="evenodd" clip-rule="evenodd" d="M12.5 8.514c-2.21 0-4 1.794-4 4.006a4.003 4.003 0 004 4.007c2.21 0 4-1.794 4-4.007a4.003 4.003 0 00-4-4.006zm-6 4.006c0-3.319 2.686-6.01 6-6.01s6 2.691 6 6.01c0 3.32-2.686 6.01-6 6.01s-6-2.69-6-6.01z" fill="#F9ABFF"/><path fill-rule="evenodd" clip-rule="evenodd" d="M7 2.003c-2.761 0-5 2.242-5 5.008V18.03a5.004 5.004 0 005 5.009h11c2.761 0 5-2.243 5-5.009V7.011a5.004 5.004 0 00-5-5.008H7zM0 7.011C0 3.14 3.134 0 7 0h11c3.866 0 7 3.14 7 7.011V18.03c0 3.873-3.134 7.012-7 7.012H7c-3.866 0-7-3.14-7-7.012V7.011z" fill="#F9ABFF"/></svg>