<svg width="96" height="81" fill="none" xmlns="http://www.w3.org/2000/svg"><path d="M53.666 20.923a38.687 38.687 0 00-10.98 3.245c-3.42 1.603-6.466 3.675-8.962 6.099-2.495 2.423-4.392 5.15-5.581 8.024-1.19 2.875-1.649 5.841-1.351 8.73l8.505-1.198c-.211-2.045.114-4.146.956-6.182.843-2.035 2.186-3.966 3.953-5.682 1.767-1.717 3.924-3.184 6.347-4.32a27.4 27.4 0 017.775-2.297l-.662-6.419z" fill="#CE93E2"/><g filter="url(#a)"><path transform="matrix(.98781 -.15565 .11457 .99342 11.998 50.536)" fill="#CE93E2" d="M0 0H13.048V8.499H0z"/></g><path d="M9.191 59.818c-.106-2.832.228-5.376.934-7.104.705-1.728 1.729-2.509 2.857-2.18l.48 8.377c-.279-.081-.53.111-.705.537-.174.426-.256 1.053-.23 1.75l-3.336-1.38z" fill="#CE93E2"/><g filter="url(#b)"><path d="M66.684 40.093c.748-2.523-.096-5.64-2.447-9.04-2.352-3.401-6.128-6.963-10.949-10.33l-6.33 1.676c3.356 2.344 5.983 4.823 7.62 7.189 1.636 2.366 2.224 4.536 1.703 6.292l10.403 4.213z" fill="#F1F1F1"/></g><path d="M23.38 61.468c0 .521-.182 1.038-.534 1.52-.353.481-.87.919-1.52 1.287-.652.37-1.425.662-2.276.861-.851.2-1.763.302-2.684.302-.921 0-1.833-.102-2.684-.302-.851-.2-1.625-.492-2.276-.86-.651-.37-1.168-.807-1.52-1.289-.353-.481-.534-.998-.534-1.519H23.38z" fill="#F1F1F1"/><path d="M29.467 58.027c0 .694-.286 1.38-.842 2.015-.556.635-1.368 1.206-2.386 1.677-1.018.471-2.22.831-3.53 1.059-1.31.227-2.7.317-4.083.263a18.213 18.213 0 01-3.952-.577c-1.223-.327-2.299-.776-3.158-1.32-.86-.544-1.485-1.172-1.836-1.843-.352-.67-.422-1.37-.206-2.055l3.144.247c-.147.468-.1.947.141 1.405.24.459.668.887 1.255 1.26.588.371 1.322.679 2.159.902.836.223 1.756.357 2.7.394a13.39 13.39 0 002.791-.18c.896-.155 1.717-.401 2.413-.723.696-.322 1.252-.712 1.631-1.147.38-.434.576-.903.576-1.377h3.183zM15.125 65.381c2.3.258 5.309.353 8.365.265 3.056-.088 5.91-.352 7.931-.734 2.022-.381 3.048-.85 2.851-1.3-.196-.452-1.599-.85-3.899-1.108l-7.624 1.439-7.624 1.438z" fill="#F1F1F1"/><path d="M9.527 59.168a.274.274 0 01.243-.292l2.843-.305a.256.256 0 01.284.236l.024.307-3.107.333a.256.256 0 01-.284-.236l-.003-.043z" fill="#CE93E2"/><path d="M9.176 59.505l3.39-.315a.257.257 0 01.282.24l.123 1.817c.01.146-.1.275-.245.288l-3.127.291a.257.257 0 01-.282-.24l-.141-2.08zM18.086 63.056H20.732999999999997V64.37899999999999H18.086z" fill="#F1F1F1"/><path d="M9.299 57.54a1.934 1.934 0 011.65-2.092l3.589-.488a.76.76 0 01.865.683l.21 2.098a.83.83 0 01-.709.897l-5.16.702a.253.253 0 01-.289-.228L9.3 57.54z" fill="#CE93E2"/><g filter="url(#c)"><rect x="19.674" y="38.441" width="70.935" height="37.585" rx="10.852" fill="#E9BFF8"/></g><g filter="url(#d)"><rect x="23.115" y="35" width="71.199" height="37.585" rx="10.852" fill="#F1F1F1"/></g><path d="M55.252 44.73L42.967 69.754a2.205 2.205 0 01-.869.922c-.374.242-.79.362-1.248.362-.447 0-.863-.12-1.249-.362a2.367 2.367 0 01-.868-.922L26.465 44.73h5.266l9.119 18.69 9.155-18.69h5.247z" fill="#431C51"/><path d="M69.28 44.73L56.995 69.754a2.205 2.205 0 01-.869.922c-.374.242-.79.362-1.248.362-.447 0-.863-.12-1.249-.362a2.367 2.367 0 01-.868-.922L40.493 44.73h5.266l9.119 18.69 9.155-18.69h5.247z" fill="#CE93E2"/><path d="M88.301 53.451c0 1.074-.133 2.033-.398 2.877a8.074 8.074 0 01-1.086 2.244 7.496 7.496 0 01-1.555 1.646 9.661 9.661 0 01-1.864 1.14c-.64.29-1.29.5-1.954.634-.652.132-1.267.199-1.846.199l9.825 8.485h-7.274l-9.806-8.485h-3.384v-4.705H79.6a5.529 5.529 0 001.61-.362 4.015 4.015 0 001.266-.814c.362-.338.64-.742.832-1.212.193-.483.29-1.031.29-1.647v-2.967c0-.265-.036-.464-.109-.597a.597.597 0 00-.253-.308.638.638 0 00-.326-.126 2.78 2.78 0 00-.307-.018H67.077v21.241h-4.704V47.101c0-.326.06-.634.181-.923.12-.29.284-.543.489-.76a2.33 2.33 0 01.76-.507c.29-.12.603-.18.94-.18h17.859c1.05 0 1.936.192 2.66.578.723.374 1.308.85 1.755 1.43a5.25 5.25 0 01.977 1.845c.205.664.307 1.285.307 1.864v3.003z" fill="#431C51"/><defs><filter id="a" x="10.939" y="48.505" width="15.98" height="12.592" filterUnits="userSpaceOnUse" color-interpolation-filters="sRGB"><feFlood flood-opacity="0" result="BackgroundImageFix"/><feColorMatrix in="SourceAlpha" values="0 0 0 0 0 0 0 0 0 0 0 0 0 0 0 0 0 0 127 0" result="hardAlpha"/><feOffset dy="1.059"/><feGaussianBlur stdDeviation=".529"/><feComposite in2="hardAlpha" operator="out"/><feColorMatrix values="0 0 0 0 0 0 0 0 0 0 0 0 0 0 0 0 0 0 0.25 0"/><feBlend in2="BackgroundImageFix" result="effect1_dropShadow_481_276"/><feBlend in="SourceGraphic" in2="effect1_dropShadow_481_276" result="shape"/></filter><filter id="b" x="45.9" y="20.722" width="22.108" height="21.488" filterUnits="userSpaceOnUse" color-interpolation-filters="sRGB"><feFlood flood-opacity="0" result="BackgroundImageFix"/><feColorMatrix in="SourceAlpha" values="0 0 0 0 0 0 0 0 0 0 0 0 0 0 0 0 0 0 127 0" result="hardAlpha"/><feOffset dy="1.059"/><feGaussianBlur stdDeviation=".529"/><feComposite in2="hardAlpha" operator="out"/><feColorMatrix values="0 0 0 0 0 0 0 0 0 0 0 0 0 0 0 0 0 0 0.25 0"/><feBlend in2="BackgroundImageFix" result="effect1_dropShadow_481_276"/><feBlend in="SourceGraphic" in2="effect1_dropShadow_481_276" result="shape"/></filter><filter id="c" x="18.615" y="38.441" width="73.052" height="39.702" filterUnits="userSpaceOnUse" color-interpolation-filters="sRGB"><feFlood flood-opacity="0" result="BackgroundImageFix"/><feColorMatrix in="SourceAlpha" values="0 0 0 0 0 0 0 0 0 0 0 0 0 0 0 0 0 0 127 0" result="hardAlpha"/><feOffset dy="1.059"/><feGaussianBlur stdDeviation=".529"/><feComposite in2="hardAlpha" operator="out"/><feColorMatrix values="0 0 0 0 0 0 0 0 0 0 0 0 0 0 0 0 0 0 0.25 0"/><feBlend in2="BackgroundImageFix" result="effect1_dropShadow_481_276"/><feBlend in="SourceGraphic" in2="effect1_dropShadow_481_276" result="shape"/></filter><filter id="d" x="22.056" y="35" width="73.317" height="39.702" filterUnits="userSpaceOnUse" color-interpolation-filters="sRGB"><feFlood flood-opacity="0" result="BackgroundImageFix"/><feColorMatrix in="SourceAlpha" values="0 0 0 0 0 0 0 0 0 0 0 0 0 0 0 0 0 0 127 0" result="hardAlpha"/><feOffset dy="1.059"/><feGaussianBlur stdDeviation=".529"/><feComposite in2="hardAlpha" operator="out"/><feColorMatrix values="0 0 0 0 0 0 0 0 0 0 0 0 0 0 0 0 0 0 0.25 0"/><feBlend in2="BackgroundImageFix" result="effect1_dropShadow_481_276"/><feBlend in="SourceGraphic" in2="effect1_dropShadow_481_276" result="shape"/></filter></defs></svg>