<svg width="26" height="27" fill="none" xmlns="http://www.w3.org/2000/svg"><path fill-rule="evenodd" clip-rule="evenodd" d="M12 1.002A1 1 0 0113 0h5a1 1 0 011 1.002c0 1.594.632 3.122 1.757 4.25A5.995 5.995 0 0025 7.011a1 1 0 011 1.001v5.008a1 1 0 01-1 1.002 12.971 12.971 0 01-6-1.467v4.471c0 1.81-.514 3.584-1.484 5.111a9.486 9.486 0 01-14.11 2.193 9.53 9.53 0 01-.342-14.299 9.494 9.494 0 014.76-2.366A.999.999 0 019 8.652v5.208c0 .387-.222.74-.571.905a2.5 2.5 0 00-1.424 2.111 2.508 2.508 0 001.159 2.268 2.497 2.497 0 003.488-.842c.228-.386.348-.826.348-1.274V1.002zm2 1.001v15.025a4.514 4.514 0 01-2.33 3.948 4.494 4.494 0 01-6.176-1.895A4.514 4.514 0 017 13.28V9.95a7.514 7.514 0 00-4.648 9.356 7.512 7.512 0 002.337 3.489 7.494 7.494 0 0011.14-1.732A7.521 7.521 0 0017 17.028v-6.26a1.002 1.002 0 011.583-.814A10.977 10.977 0 0024 11.974V8.953a7.995 7.995 0 01-4.657-2.284 8.018 8.018 0 01-2.28-4.665H14z" fill="#F9ABFF"/></svg>